# xmcd
#
# Track frame offsets:
#	150
#	22805
#	44280
#	66969
#	91794
#	113129
#	135358
#	157073
#	176501
#	195031
#	214309
#	235694
#	259197
#	285444
#	307881
#
# Disc length: 4409 seconds
#
# Revision: 0
# Processed by: cddbd v1.5PL3 Copyright (c) Steve Scherf et al.
# Submitted via: dBpowerAMP V4.0
#
DISCID=bc11370f
DTITLE=Kenny G - Star profile
DYEAR=1900
DGENRE=Blues
TTITLE0=Forever In Love
TTITLE1=Kenny G/ Peabo Bryson
TTITLE2=Eastside Jam
TTITLE3=Going Home
TTITLE4=Against Doctor`s Orders
TTITLE5=That Somebody Was You (with Tony Braxton)
TTITLE6=The Way To You
TTITLE7=Sade
TTITLE8=Midnight Motion
TTITLE9=Gettin` On The Step
TTITLE10=Don`t Make Me Wait For Love (with Michael Bolton)
TTITLE11=Mystica
TTITLE12=Blue Gala
TTITLE13=Cause We`ve Ended As Lovers
TTITLE14=Songbird
EXTD=Serge Igel\nNoginsk, Russia
EXTT0=
EXTT1=
EXTT2=
EXTT3=
EXTT4=
EXTT5=
EXTT6=
EXTT7=
EXTT8=
EXTT9=
EXTT10=
EXTT11=
EXTT12=
EXTT13=
EXTT14=
PLAYORDER=
